<svg viewBox="0 0 18 18" xmlns="http://www.w3.org/2000/svg" xmlns:xlink="http://www.w3.org/1999/xlink" width="18.000000" height="18.000000" fill="none">
	<defs>
		<clipPath id="clipPath_0">
			<rect width="14.000000" height="14.000000" x="2.000000" y="2.000000" fill="rgb(255,255,255)" />
		</clipPath>
	</defs>
	<rect id="dark" width="18.000000" height="18.000000" x="0.000000" y="0.000000" />
	<g id="ic_public_moon" clip-path="url(#clipPath_0)" customFrame="url(#clipPath_0)">
		<rect id="ic_public_moon" width="14.000000" height="14.000000" x="2.000000" y="2.000000" />
		<g id="ic_public_moon_1_1">
			<path id="ic_public_moon_2_0" d="M3.37637 8.99542C3.37637 8.11665 3.37329 7.23787 3.37637 6.35911C3.3746 5.93387 3.42686 5.51013 3.53191 5.09807C3.76215 4.22589 4.33027 3.70829 5.20157 3.5075C5.63845 3.4131 6.08468 3.36888 6.53159 3.37568C8.21678 3.37568 9.90211 3.37568 11.5876 3.37568C12.0133 3.37304 12.4377 3.42172 12.8517 3.52068C13.7494 3.74037 14.2881 4.30893 14.4932 5.20352C14.5855 5.62632 14.6296 6.0582 14.6246 6.49092C14.6246 8.19427 14.6246 9.89777 14.6246 11.6014C14.6269 12.023 14.5784 12.4433 14.4801 12.8532C14.2604 13.7513 13.6892 14.2874 12.7946 14.4926C12.3576 14.5866 11.9115 14.6308 11.4646 14.6244C9.78641 14.6244 8.1084 14.6244 6.43053 14.6244C6.00161 14.6279 5.57382 14.5799 5.15632 14.4816C4.2547 14.2619 3.71338 13.6907 3.50862 12.7917C3.40405 12.3347 3.37637 11.8765 3.37637 11.4142C3.37637 10.6081 3.37637 9.80183 3.37637 8.99542Z" fill="rgb(255,255,255)" fill-opacity="0" fill-rule="nonzero" />
			<path id="ic_public_moon_2_0" d="M3.37637 6.35911C3.3746 5.93387 3.42686 5.51013 3.53191 5.09807C3.76215 4.22589 4.33027 3.70829 5.20157 3.5075C5.63845 3.4131 6.08468 3.36888 6.53159 3.37568C8.21678 3.37568 9.90211 3.37568 11.5876 3.37568C12.0133 3.37304 12.4377 3.42172 12.8517 3.52068C13.7494 3.74037 14.2881 4.30893 14.4932 5.20352C14.5855 5.62632 14.6296 6.0582 14.6246 6.49092C14.6246 8.19427 14.6246 9.89777 14.6246 11.6014C14.6269 12.023 14.5784 12.4433 14.4801 12.8532C14.2604 13.7513 13.6892 14.2874 12.7946 14.4926C12.3576 14.5866 11.9115 14.6308 11.4646 14.6244C9.78641 14.6244 8.1084 14.6244 6.43053 14.6244C6.00161 14.6279 5.57382 14.5799 5.15632 14.4816C4.2547 14.2619 3.71338 13.6907 3.50862 12.7917C3.40405 12.3347 3.37637 11.8765 3.37637 11.4142C3.37637 10.6081 3.37637 9.80183 3.37637 8.99542C3.37637 8.11665 3.37329 7.23787 3.37637 6.35911Z" fill-rule="nonzero" stroke="rgb(255,255,255)" stroke-opacity="0" stroke-width="0.75" />
			<path id="ic_public_moon_2_1" d="M3.37637 6.35911C3.3746 5.93387 3.42686 5.51013 3.53191 5.09807C3.76215 4.22589 4.33027 3.70829 5.20157 3.5075C5.63845 3.4131 6.08468 3.36888 6.53159 3.37568C8.21678 3.37568 9.90211 3.37568 11.5876 3.37568C12.0133 3.37304 12.4377 3.42172 12.8517 3.52068C13.7494 3.74037 14.2881 4.30893 14.4932 5.20352C14.5855 5.62632 14.6296 6.0582 14.6246 6.49092C14.6246 8.19427 14.6246 9.89777 14.6246 11.6014C14.6269 12.023 14.5784 12.4433 14.4801 12.8532C14.2604 13.7513 13.6892 14.2874 12.7946 14.4926C12.3576 14.5866 11.9115 14.6308 11.4646 14.6244C9.78641 14.6244 8.1084 14.6244 6.43053 14.6244C6.00161 14.6279 5.57382 14.5799 5.15632 14.4816C4.2547 14.2619 3.71338 13.6907 3.50862 12.7917C3.40405 12.3347 3.37637 11.8765 3.37637 11.4142C3.37637 10.6081 3.37637 9.80183 3.37637 8.99542C3.37637 8.11665 3.37329 7.23787 3.37637 6.35911Z" opacity="0.200000003" fill-rule="nonzero" stroke="rgb(255,255,255)" stroke-opacity="0" stroke-width="0.75" />
			<circle id="ic_public_moon_2_2" cx="9" cy="9" r="6" fill="rgb(255,255,255)" fill-opacity="0" />
			<path id="ic_public_moon_2_3" d="M7.19603 6.1842C7.19603 8.73572 9.26449 10.8041 11.8161 10.8041C12.6065 10.8041 13.3283 10.6273 13.9814 10.2736L13.9813 10.2733C14.0984 10.21 14.2447 10.2536 14.308 10.3707C14.3392 10.4283 14.3456 10.4962 14.3256 10.5587C14.0414 11.4409 13.6603 12.1392 13.1821 12.6537C12.306 13.5965 11.0172 14.5001 9.04405 14.5001C5.98215 14.5001 3.5 12.018 3.5 8.95616C3.5 7.40751 4.17339 5.83103 5.412 4.77693C6.06658 4.21985 6.75602 3.83692 7.4803 3.62814L7.48026 3.62802C7.60825 3.59139 7.74169 3.66545 7.77833 3.79343C7.79585 3.85465 7.78843 3.92031 7.75771 3.97608C7.38325 4.65807 7.19603 5.39411 7.19603 6.1842Z" fill="rgb(255,255,255)" fill-opacity="0" fill-rule="evenodd" />
			<path id="ic_public_moon_2_3" d="M11.8161 10.8041C12.6065 10.8041 13.3283 10.6273 13.9814 10.2736L13.9813 10.2733C14.0984 10.21 14.2447 10.2536 14.308 10.3707C14.3392 10.4283 14.3456 10.4962 14.3256 10.5587C14.0414 11.4409 13.6603 12.1392 13.1821 12.6537C12.306 13.5965 11.0172 14.5001 9.04405 14.5001C5.98215 14.5001 3.5 12.018 3.5 8.95616C3.5 7.40751 4.17339 5.83103 5.412 4.77693C6.06658 4.21985 6.75602 3.83692 7.4803 3.62814L7.48026 3.62802C7.60825 3.59139 7.74169 3.66545 7.77833 3.79343C7.79585 3.85465 7.78843 3.92031 7.75771 3.97608C7.38325 4.65807 7.19603 5.39411 7.19603 6.1842C7.19603 8.73572 9.26449 10.8041 11.8161 10.8041Z" fill-rule="evenodd" stroke="rgb(25,25,25)" stroke-linejoin="round" stroke-width="0.75" />
		</g>
	</g>
</svg>
