<svg viewBox="0 0 18 18" xmlns="http://www.w3.org/2000/svg" xmlns:xlink="http://www.w3.org/1999/xlink" width="18.000000" height="18.000000" fill="none">
	<rect id="light" width="18.000000" height="18.000000" x="0.000000" y="0.000000" />
	<g id="ic_public_sun_1_1">
		<path id="ic_public_sun_2_0" d="M2.43909 8.99466C2.43909 7.96942 2.43551 6.94419 2.43909 5.91896C2.43703 5.42285 2.49801 4.92849 2.62056 4.44775C2.88917 3.43021 3.55198 2.82634 4.5685 2.59208C5.0782 2.48195 5.59879 2.43036 6.12019 2.43829C8.08624 2.43829 10.0525 2.43829 12.0189 2.43829C12.5155 2.43521 13.0106 2.49201 13.4937 2.60746C14.5409 2.86377 15.1694 3.52709 15.4088 4.57078C15.5164 5.06404 15.5678 5.56791 15.5621 6.07274C15.5621 8.05999 15.5621 10.0474 15.5621 12.035C15.5647 12.5268 15.5081 13.0172 15.3934 13.4954C15.1371 14.5432 14.4707 15.1686 13.427 15.408C12.9173 15.5177 12.3967 15.5693 11.8753 15.5618C9.91748 15.5618 7.9598 15.5618 6.00229 15.5618C5.50188 15.5659 5.00279 15.5099 4.5157 15.3952C3.46381 15.1389 2.83227 14.4725 2.59339 13.4237C2.47139 12.8905 2.43909 12.3559 2.43909 11.8166C2.43909 10.8761 2.43909 9.93548 2.43909 8.99466Z" fill="rgb(255,255,255)" fill-opacity="0" fill-rule="nonzero" />
		<path id="ic_public_sun_2_0" d="M2.43909 5.91896C2.43703 5.42285 2.49801 4.92849 2.62056 4.44775C2.88917 3.43021 3.55198 2.82634 4.5685 2.59208C5.0782 2.48195 5.59879 2.43036 6.12019 2.43829C8.08624 2.43829 10.0525 2.43829 12.0189 2.43829C12.5155 2.43521 13.0106 2.49201 13.4937 2.60746C14.5409 2.86377 15.1694 3.52709 15.4088 4.57078C15.5164 5.06404 15.5678 5.56791 15.5621 6.07274C15.5621 8.05999 15.5621 10.0474 15.5621 12.035C15.5647 12.5268 15.5081 13.0172 15.3934 13.4954C15.1371 14.5432 14.4707 15.1686 13.427 15.408C12.9173 15.5177 12.3967 15.5693 11.8753 15.5618C9.91748 15.5618 7.9598 15.5618 6.00229 15.5618C5.50188 15.5659 5.00279 15.5099 4.5157 15.3952C3.46381 15.1389 2.83227 14.4725 2.59339 13.4237C2.47139 12.8905 2.43909 12.3559 2.43909 11.8166C2.43909 10.8761 2.43909 9.93548 2.43909 8.99466C2.43909 7.96942 2.43551 6.94419 2.43909 5.91896Z" fill-rule="nonzero" stroke="rgb(255,255,255)" stroke-opacity="0" stroke-width="0.875" />
		<path id="ic_public_sun_2_1" d="M2.43909 5.91896C2.43703 5.42285 2.49801 4.92849 2.62056 4.44775C2.88917 3.43021 3.55198 2.82634 4.5685 2.59208C5.0782 2.48195 5.59879 2.43036 6.12019 2.43829C8.08624 2.43829 10.0525 2.43829 12.0189 2.43829C12.5155 2.43521 13.0106 2.49201 13.4937 2.60746C14.5409 2.86377 15.1694 3.52709 15.4088 4.57078C15.5164 5.06404 15.5678 5.56791 15.5621 6.07274C15.5621 8.05999 15.5621 10.0474 15.5621 12.035C15.5647 12.5268 15.5081 13.0172 15.3934 13.4954C15.1371 14.5432 14.4707 15.1686 13.427 15.408C12.9173 15.5177 12.3967 15.5693 11.8753 15.5618C9.91748 15.5618 7.9598 15.5618 6.00229 15.5618C5.50188 15.5659 5.00279 15.5099 4.5157 15.3952C3.46381 15.1389 2.83227 14.4725 2.59339 13.4237C2.47139 12.8905 2.43909 12.3559 2.43909 11.8166C2.43909 10.8761 2.43909 9.93548 2.43909 8.99466C2.43909 7.96942 2.43551 6.94419 2.43909 5.91896Z" opacity="0.200000003" fill-rule="nonzero" stroke="rgb(255,255,255)" stroke-opacity="0" stroke-width="0.875" />
		<circle id="ic_public_sun_2_2" cx="9" cy="9" r="7" fill="rgb(255,255,255)" fill-opacity="0" />
		<circle id="ic_public_sun_2_3" cx="9.00016212" cy="8.99991798" r="3.79166627" fill="rgb(255,255,255)" fill-opacity="0" />
		<circle id="ic_public_sun_2_3" cx="9.00016212" cy="8.99991798" r="3.79166627" stroke="rgb(25,25,25)" stroke-linecap="round" stroke-linejoin="round" stroke-width="0.875" />
		<path id="ic_public_sun_2_4" d="M14.25 9L15.125 9M2.875 9L3.75 9M9 14.25L9 15.125M9 2.875L9 3.75M5.28769 12.7123L4.66897 13.331M13.331 4.66897L12.7123 5.28769M5.28769 5.28769L4.66897 4.66897M13.331 13.331L12.7123 12.7123" stroke="rgb(25,25,25)" stroke-linecap="round" stroke-linejoin="round" stroke-width="0.875" />
		<path id="ic_public_sun_2_5" d="M9.00016 13.9583C9.16125 13.9583 9.29183 14.0888 9.29183 14.2499L9.29183 15.1249C9.29183 15.286 9.16125 15.4166 9.00016 15.4166C8.83908 15.4166 8.7085 15.286 8.7085 15.1249L8.7085 14.2499C8.7085 14.0888 8.83908 13.9583 9.00016 13.9583ZM5.08161 12.506C5.19552 12.3921 5.38019 12.3921 5.49409 12.506C5.60799 12.6199 5.60799 12.8046 5.49409 12.9185L4.87537 13.5372C4.76147 13.6511 4.5768 13.6511 4.46289 13.5372C4.34899 13.4233 4.34899 13.2386 4.46289 13.1247L5.08161 12.506ZM12.5062 12.506C12.6201 12.3921 12.8048 12.3921 12.9187 12.506L13.5374 13.1247C13.6513 13.2386 13.6513 13.4233 13.5374 13.5372C13.4235 13.6511 13.2389 13.6511 13.125 13.5372L12.5062 12.9185C12.3923 12.8046 12.3923 12.6199 12.5062 12.506ZM15.1252 8.70825C15.2862 8.70825 15.4168 8.83883 15.4168 8.99992C15.4168 9.161 15.2862 9.29158 15.1252 9.29158L14.2502 9.29158C14.0891 9.29158 13.9585 9.161 13.9585 8.99992C13.9585 8.83883 14.0891 8.70825 14.2502 8.70825L15.1252 8.70825ZM3.75016 8.70825C3.91125 8.70825 4.04183 8.83883 4.04183 8.99992C4.04183 9.161 3.91125 9.29158 3.75016 9.29158L2.87516 9.29158C2.71408 9.29158 2.5835 9.161 2.5835 8.99992C2.5835 8.83883 2.71408 8.70825 2.87516 8.70825L3.75016 8.70825ZM13.125 4.46265C13.2389 4.34875 13.4235 4.34875 13.5374 4.46265C13.6513 4.57655 13.6513 4.76123 13.5374 4.87513L12.9187 5.49385C12.8048 5.60775 12.6201 5.60775 12.5062 5.49385C12.3923 5.37994 12.3923 5.19527 12.5062 5.08137L13.125 4.46265ZM4.46289 4.46265C4.5768 4.34875 4.76147 4.34875 4.87537 4.46265L5.49409 5.08137C5.60799 5.19527 5.60799 5.37994 5.49409 5.49385C5.38019 5.60775 5.19552 5.60775 5.08161 5.49385L4.46289 4.87513C4.34899 4.76123 4.34899 4.57655 4.46289 4.46265ZM9.00016 2.58325C9.16125 2.58325 9.29183 2.71384 9.29183 2.87492L9.29183 3.74992C9.29183 3.911 9.16125 4.04158 9.00016 4.04158C8.83908 4.04158 8.7085 3.911 8.7085 3.74992L8.7085 2.87492C8.7085 2.71384 8.83908 2.58325 9.00016 2.58325Z" fill="rgb(255,255,255)" fill-opacity="0" fill-rule="nonzero" />
		<path id="ic_public_sun_2_5" d="M9.29183 14.2499L9.29183 15.1249C9.29183 15.286 9.16125 15.4166 9.00016 15.4166C8.83908 15.4166 8.7085 15.286 8.7085 15.1249L8.7085 14.2499C8.7085 14.0888 8.83908 13.9583 9.00016 13.9583C9.16125 13.9583 9.29183 14.0888 9.29183 14.2499ZM5.49409 12.506C5.60799 12.6199 5.60799 12.8046 5.49409 12.9185L4.87537 13.5372C4.76147 13.6511 4.5768 13.6511 4.46289 13.5372C4.34899 13.4233 4.34899 13.2386 4.46289 13.1247L5.08161 12.506C5.19552 12.3921 5.38019 12.3921 5.49409 12.506ZM12.9187 12.506L13.5374 13.1247C13.6513 13.2386 13.6513 13.4233 13.5374 13.5372C13.4235 13.6511 13.2389 13.6511 13.125 13.5372L12.5062 12.9185C12.3923 12.8046 12.3923 12.6199 12.5062 12.506C12.6201 12.3921 12.8048 12.3921 12.9187 12.506ZM15.4168 8.99992C15.4168 9.161 15.2862 9.29158 15.1252 9.29158L14.2502 9.29158C14.0891 9.29158 13.9585 9.161 13.9585 8.99992C13.9585 8.83883 14.0891 8.70825 14.2502 8.70825L15.1252 8.70825C15.2862 8.70825 15.4168 8.83883 15.4168 8.99992ZM4.04183 8.99992C4.04183 9.161 3.91125 9.29158 3.75016 9.29158L2.87516 9.29158C2.71408 9.29158 2.5835 9.161 2.5835 8.99992C2.5835 8.83883 2.71408 8.70825 2.87516 8.70825L3.75016 8.70825C3.91125 8.70825 4.04183 8.83883 4.04183 8.99992ZM13.5374 4.46265C13.6513 4.57655 13.6513 4.76123 13.5374 4.87513L12.9187 5.49385C12.8048 5.60775 12.6201 5.60775 12.5062 5.49385C12.3923 5.37994 12.3923 5.19527 12.5062 5.08137L13.125 4.46265C13.2389 4.34875 13.4235 4.34875 13.5374 4.46265ZM4.87537 4.46265L5.49409 5.08137C5.60799 5.19527 5.60799 5.37994 5.49409 5.49385C5.38019 5.60775 5.19552 5.60775 5.08161 5.49385L4.46289 4.87513C4.34899 4.76123 4.34899 4.57655 4.46289 4.46265C4.5768 4.34875 4.76147 4.34875 4.87537 4.46265ZM9.29183 2.87492L9.29183 3.74992C9.29183 3.911 9.16125 4.04158 9.00016 4.04158C8.83908 4.04158 8.7085 3.911 8.7085 3.74992L8.7085 2.87492C8.7085 2.71384 8.83908 2.58325 9.00016 2.58325C9.16125 2.58325 9.29183 2.71384 9.29183 2.87492Z" fill-rule="nonzero" stroke="rgb(255,255,255)" stroke-opacity="0" stroke-width="0.875" />
	</g>
</svg>
