<svg viewBox="0 0 283 32.5" xmlns="http://www.w3.org/2000/svg" xmlns:xlink="http://www.w3.org/1999/xlink" width="283.000000" height="32.500000" fill="none" customFrame="#000000">
	<defs>
		<radialGradient id="paint_radial_0" cx="0" cy="0" r="1" gradientUnits="userSpaceOnUse" gradientTransform="matrix(-26.1588,-16.8523,24.9794,-38.774,11.3013,5.12936)">
			<stop stop-color="rgb(90,221,248)" offset="0" stop-opacity="1" />
			<stop stop-color="rgb(174,191,255)" offset="0" stop-opacity="1" />
			<stop stop-color="rgb(20,118,255)" offset="0.329153001" stop-opacity="1" />
			<stop stop-color="rgb(131,169,255)" offset="1" stop-opacity="1" />
		</radialGradient>
	</defs>
	<g id="logo2">
		<path id="" d="M67.375 17.2539Q67.375 20.4062 65.3945 22.4512Q63.4141 24.4961 60.2383 24.4961Q57.0742 24.4961 55.1055 22.4453Q53.1367 20.3945 53.1367 17.2539L53.1367 14.1836Q53.1367 11.0547 55.0996 8.99805Q57.0625 6.94141 60.2148 6.94141Q63.3906 6.94141 65.3828 8.99805Q67.375 11.0547 67.375 14.1836L67.375 17.2539ZM63.9648 14.1602Q63.9648 12.168 62.9688 10.8906Q61.9727 9.61328 60.2148 9.61328Q58.4805 9.61328 57.5137 10.8906Q56.5469 12.168 56.5469 14.1602L56.5469 17.2539Q56.5469 19.2812 57.5195 20.5586Q58.4922 21.8359 60.2383 21.8359Q61.9961 21.8359 62.9805 20.5586Q63.9648 19.2812 63.9648 17.2539L63.9648 14.1602ZM81.2617 18.2617Q81.2617 21.0742 79.9609 22.7852Q78.6602 24.4961 76.3281 24.4961Q75.332 24.4961 74.5586 24.127Q73.7852 23.7578 73.2344 23.043L73.2344 29.125L69.8242 29.125L69.8242 11.5703L72.9062 11.5703L73.1055 13.0703Q73.668 12.2383 74.459 11.7871Q75.25 11.3359 76.3047 11.3359Q78.6602 11.3359 79.9609 13.1758Q81.2617 15.0156 81.2617 18.0156L81.2617 18.2617ZM77.8398 18.0156Q77.8398 16.2227 77.2422 15.1094Q76.6445 13.9961 75.4141 13.9961Q74.6406 13.9961 74.0957 14.3125Q73.5508 14.6289 73.2344 15.2148L73.2344 20.7695Q73.5508 21.3086 74.0957 21.5898Q74.6406 21.8711 75.4375 21.8711Q76.6797 21.8711 77.2598 20.8984Q77.8398 19.9258 77.8398 18.2617L77.8398 18.0156ZM88.8672 24.4961Q86.0312 24.4961 84.4375 22.7559Q82.8438 21.0156 82.8438 18.2734L82.8438 17.8047Q82.8438 14.957 84.3906 13.1406Q85.9375 11.3242 88.6445 11.3359Q91.1992 11.3359 92.5645 12.9004Q93.9297 14.4648 93.9297 17.1133L93.9297 18.8828L86.3711 18.8828L86.3359 18.9531Q86.418 20.2539 87.127 21.0625Q87.8359 21.8711 89.2305 21.8711Q90.3789 21.8711 91.1816 21.6367Q91.9844 21.4023 92.8398 20.9219L93.7656 23.0312Q93.0039 23.6523 91.7031 24.0742Q90.4023 24.4961 88.8672 24.4961ZM88.6445 13.9727Q87.6133 13.9727 87.0566 14.6816Q86.5 15.3906 86.3828 16.5625L86.4062 16.6211L90.5781 16.6211L90.5781 16.3633Q90.5781 15.25 90.1211 14.6113Q89.6641 13.9727 88.6445 13.9727ZM99.0508 11.5703L99.2031 13.3867Q99.8359 12.4141 100.762 11.875Q101.688 11.3359 102.836 11.3359Q104.758 11.3359 105.836 12.5723Q106.914 13.8086 106.914 16.4805L106.914 24.25L103.48 24.25L103.48 16.4922Q103.48 15.1328 103.006 14.5645Q102.531 13.9961 101.582 13.9961Q100.82 13.9961 100.24 14.2832Q99.6602 14.5703 99.2852 15.0742L99.2852 24.25L95.8633 24.25L95.8633 11.5703L99.0508 11.5703ZM121.621 9.82422L116.746 9.82422L116.746 24.25L113.324 24.25L113.324 9.82422L108.52 9.82422L108.52 7.1875L121.621 7.1875L121.621 9.82422ZM126.836 24.25L123.414 24.25L123.414 11.5703L126.836 11.5703L126.836 24.25ZM126.836 8.53516L123.414 8.53516L123.414 5.96875L126.836 5.96875L126.836 8.53516ZM132.777 11.5703L132.93 13.3867Q133.562 12.4141 134.488 11.875Q135.414 11.3359 136.562 11.3359Q138.484 11.3359 139.562 12.5723Q140.641 13.8086 140.641 16.4805L140.641 24.25L137.207 24.25L137.207 16.4922Q137.207 15.1328 136.732 14.5645Q136.258 13.9961 135.309 13.9961Q134.547 13.9961 133.967 14.2832Q133.387 14.5703 133.012 15.0742L133.012 24.25L129.59 24.25L129.59 11.5703L132.777 11.5703ZM147.766 18.9297L147.906 19.6328L147.977 19.6328L150.402 11.5703L154.082 11.5703L148.938 26.1484Q148.398 27.5078 147.473 28.4395Q146.547 29.3711 144.695 29.3711Q144.262 29.3711 143.893 29.3008Q143.523 29.2305 142.996 29.1016L143.395 26.6055Q143.547 26.6289 143.723 26.6523Q143.898 26.6758 144.039 26.6758Q144.883 26.6758 145.34 26.2598Q145.797 25.8438 146.043 25.2227L146.441 24.2383L141.941 11.5703L145.621 11.5703L147.766 18.9297ZM165.109 18.0625L165.109 24.25L161.688 24.25L161.688 7.1875L168.215 7.1875Q171.156 7.1875 172.844 8.6875Q174.531 10.1875 174.531 12.6367Q174.531 15.0859 172.844 16.5742Q171.156 18.0625 168.215 18.0625L165.109 18.0625ZM165.109 15.4258L168.215 15.4258Q169.645 15.4258 170.383 14.6465Q171.121 13.8672 171.121 12.6602Q171.121 11.4297 170.389 10.627Q169.656 9.82422 168.215 9.82422L165.109 9.82422L165.109 15.4258ZM180.32 24.25L176.898 24.25L176.898 5.96875L180.32 5.96875L180.32 24.25ZM190.609 24.25Q190.422 23.8164 190.287 23.3359Q190.152 22.8555 190.094 22.3516Q189.566 23.2773 188.699 23.8867Q187.832 24.4961 186.637 24.4961Q184.645 24.4961 183.566 23.4707Q182.488 22.4453 182.488 20.6758Q182.488 18.8125 183.924 17.7871Q185.359 16.7617 188.113 16.7617L190.035 16.7617L190.035 15.7539Q190.035 14.8398 189.555 14.3359Q189.074 13.832 188.125 13.832Q187.293 13.832 186.842 14.2363Q186.391 14.6406 186.391 15.3438L183.098 15.3438L183.074 15.2734Q182.992 13.668 184.475 12.502Q185.957 11.3359 188.348 11.3359Q190.633 11.3359 192.045 12.4844Q193.457 13.6328 193.457 15.7773L193.457 21.0156Q193.457 21.9062 193.592 22.6914Q193.727 23.4766 194.02 24.25L190.609 24.25ZM187.48 21.9648Q188.371 21.9648 189.074 21.5195Q189.777 21.0742 190.035 20.4883L190.035 18.6953L188.113 18.6953Q187.023 18.6953 186.467 19.2344Q185.91 19.7734 185.91 20.5586Q185.91 21.2031 186.326 21.584Q186.742 21.9648 187.48 21.9648ZM200.418 18.9297L200.559 19.6328L200.629 19.6328L203.055 11.5703L206.734 11.5703L201.59 26.1484Q201.051 27.5078 200.125 28.4395Q199.199 29.3711 197.348 29.3711Q196.914 29.3711 196.545 29.3008Q196.176 29.2305 195.648 29.1016L196.047 26.6055Q196.199 26.6289 196.375 26.6523Q196.551 26.6758 196.691 26.6758Q197.535 26.6758 197.992 26.2598Q198.449 25.8438 198.695 25.2227L199.094 24.2383L194.594 11.5703L198.273 11.5703L200.418 18.9297ZM207.449 18.0156Q207.449 15.0156 208.75 13.1758Q210.051 11.3359 212.406 11.3359Q213.473 11.3359 214.281 11.8164Q215.09 12.2969 215.664 13.1875L215.934 11.5703L218.875 11.5703L218.875 24.1914Q218.875 26.6641 217.258 28.0176Q215.641 29.3711 212.746 29.3711Q211.785 29.3711 210.707 29.1074Q209.629 28.8438 208.715 28.3867L209.289 25.832Q210.074 26.207 210.912 26.4004Q211.75 26.5938 212.723 26.5938Q214.129 26.5938 214.791 26.0078Q215.453 25.4219 215.453 24.1797L215.453 23.0312Q214.891 23.7461 214.129 24.1211Q213.367 24.4961 212.383 24.4961Q210.051 24.4961 208.75 22.7852Q207.449 21.0742 207.449 18.2617L207.449 18.0156ZM210.871 18.2617Q210.871 19.9258 211.428 20.8809Q211.984 21.8359 213.25 21.8359Q214.035 21.8359 214.58 21.5488Q215.125 21.2617 215.453 20.7109L215.453 15.2148Q215.125 14.6289 214.58 14.3125Q214.035 13.9961 213.273 13.9961Q212.02 13.9961 211.445 15.1094Q210.871 16.2227 210.871 18.0156L210.871 18.2617ZM228.168 14.5117L226.914 14.4766Q226.152 14.4766 225.66 14.793Q225.168 15.1094 224.91 15.6836L224.91 24.25L221.5 24.25L221.5 11.5703L224.676 11.5703L224.828 13.4453Q225.273 12.4492 225.982 11.8926Q226.691 11.3359 227.617 11.3359Q227.875 11.3359 228.092 11.377Q228.309 11.418 228.531 11.4766L228.168 14.5117ZM229.188 17.793Q229.188 14.957 230.77 13.1465Q232.352 11.3359 235.152 11.3359Q237.965 11.3359 239.559 13.1406Q241.152 14.9453 241.152 17.793L241.152 18.0391Q241.152 20.8984 239.564 22.6973Q237.977 24.4961 235.176 24.4961Q232.363 24.4961 230.775 22.6973Q229.188 20.8984 229.188 18.0391L229.188 17.793ZM232.598 18.0391Q232.598 19.7734 233.207 20.8223Q233.816 21.8711 235.176 21.8711Q236.5 21.8711 237.115 20.8164Q237.73 19.7617 237.73 18.0391L237.73 17.793Q237.73 16.1055 237.109 15.0391Q236.488 13.9727 235.152 13.9727Q233.828 13.9727 233.213 15.0449Q232.598 16.1172 232.598 17.793L232.598 18.0391ZM251.031 22.375Q250.445 23.3945 249.543 23.9453Q248.641 24.4961 247.445 24.4961Q245.441 24.4961 244.311 23.1367Q243.18 21.7773 243.18 18.918L243.18 11.5703L246.59 11.5703L246.59 18.9414Q246.59 20.6055 247.041 21.2207Q247.492 21.8359 248.441 21.8359Q249.262 21.8359 249.848 21.5723Q250.434 21.3086 250.809 20.793L250.809 11.5703L254.23 11.5703L254.23 24.25L251.395 24.25L251.031 22.375ZM259.938 11.5703L260.09 13.3867Q260.723 12.4141 261.648 11.875Q262.574 11.3359 263.723 11.3359Q265.645 11.3359 266.723 12.5723Q267.801 13.8086 267.801 16.4805L267.801 24.25L264.367 24.25L264.367 16.4922Q264.367 15.1328 263.893 14.5645Q263.418 13.9961 262.469 13.9961Q261.707 13.9961 261.127 14.2832Q260.547 14.5703 260.172 15.0742L260.172 24.25L256.75 24.25L256.75 11.5703L259.938 11.5703ZM269.828 18.0156Q269.828 15.0156 271.123 13.1758Q272.418 11.3359 274.773 11.3359Q275.723 11.3359 276.484 11.7461Q277.246 12.1562 277.82 12.918L277.82 5.96875L281.254 5.96875L281.254 24.25L278.336 24.25L278.043 22.6914Q277.445 23.5703 276.625 24.0332Q275.805 24.4961 274.75 24.4961Q272.418 24.4961 271.123 22.7852Q269.828 21.0742 269.828 18.2617L269.828 18.0156ZM273.238 18.2617Q273.238 19.9258 273.801 20.8809Q274.363 21.8359 275.629 21.8359Q276.367 21.8359 276.918 21.5371Q277.469 21.2383 277.82 20.6641L277.82 15.2617Q277.469 14.6641 276.924 14.3301Q276.379 13.9961 275.652 13.9961Q274.398 13.9961 273.818 15.1094Q273.238 16.2227 273.238 18.0156L273.238 18.2617Z" fill="rgb(0,0,0)" fill-rule="nonzero" />
		<g id="IP">
			<g id="组合 1564">
				<rect id="矩形 761" width="40.000000" height="32.500000" x="0.000000" y="0.000000" rx="16.250000" fill="url(#paint_radial_0)" />
				<rect id="矩形 762" width="27.417465" height="14.666679" x="5.982422" y="9.103516" rx="7.333340" fill="rgb(255,255,255)" />
				<rect id="矩形 840" width="2.990996" height="6.068941" x="25.921875" y="13.655273" rx="1.495498" fill="rgb(20,118,255)" />
				<path id="合并(边框)" d="M12.3256 14.3563C12.3772 14.2478 12.4413 14.1507 12.5179 14.0649L12.5179 14.0649C12.599 13.9741 12.694 13.8961 12.803 13.8307C12.909 13.7672 13.0194 13.7209 13.134 13.6919C13.24 13.665 13.3497 13.6529 13.463 13.6556C13.5756 13.6535 13.6845 13.6659 13.7897 13.6929L13.7897 13.6929C13.904 13.7222 14.014 13.7687 14.1196 13.8324C14.2274 13.8973 14.3215 13.9748 14.4019 14.0647C14.4787 14.1506 14.543 14.2479 14.5948 14.3565L16.3326 18.0091C16.3737 18.0956 16.4041 18.1844 16.4238 18.2756L16.4238 18.2756C16.4379 18.3414 16.4465 18.4084 16.4495 18.4766C16.4529 18.5546 16.449 18.6314 16.4376 18.7071L16.4376 18.7071C16.426 18.7844 16.4067 18.8606 16.3797 18.9356C16.3526 19.0108 16.3188 19.0818 16.2784 19.1488L16.2784 19.1488L16.2784 19.1488C16.239 19.214 16.1932 19.2752 16.1411 19.3326C16.0955 19.3829 16.0463 19.4286 15.9936 19.4698C15.9205 19.527 15.8406 19.5754 15.7539 19.615C15.6796 19.6489 15.6034 19.675 15.5255 19.6931L15.5255 19.6931C15.4478 19.7112 15.3683 19.7214 15.287 19.7237C15.2153 19.7258 15.1446 19.7216 15.0747 19.7114C14.9917 19.6992 14.91 19.6783 14.8296 19.6487C14.749 19.6191 14.673 19.582 14.6015 19.5374L14.6015 19.5374C14.5416 19.5 14.4849 19.4573 14.4315 19.4093C14.3703 19.3545 14.3157 19.2948 14.2675 19.2301L14.2675 19.2301C14.2196 19.1659 14.1782 19.0969 14.1431 19.0231L13.4597 17.587L12.7763 19.0228C12.7408 19.0973 12.6988 19.1669 12.6504 19.2316C12.6025 19.2955 12.5483 19.3547 12.4877 19.409C12.434 19.4571 12.3771 19.5 12.3169 19.5375C12.2457 19.5819 12.1699 19.6188 12.0896 19.6483C12.0092 19.6779 11.9274 19.6987 11.8445 19.7109C11.7746 19.7212 11.7039 19.7253 11.6323 19.7232C11.5515 19.7209 11.4723 19.7108 11.395 19.6929C11.3167 19.6747 11.2402 19.6486 11.1655 19.6145C11.0789 19.5749 10.999 19.5265 10.9258 19.4693L10.9258 19.4693C10.8732 19.4282 10.824 19.3824 10.7783 19.3321C10.7262 19.2748 10.6805 19.2135 10.6411 19.1483C10.6006 19.0814 10.5668 19.0103 10.5397 18.9351C10.5127 18.8601 10.4934 18.7839 10.4818 18.7066C10.4705 18.6309 10.4665 18.5541 10.4699 18.4762C10.4729 18.4085 10.4814 18.3419 10.4954 18.2766L10.4954 18.2766C10.515 18.1849 10.5455 18.0955 10.5869 18.0085L12.3256 14.3563L12.3256 14.3563Z" fill="rgb(20,118,255)" fill-rule="evenodd" />
			</g>
		</g>
	</g>
</svg>
