<svg viewBox="0 0 18 18" xmlns="http://www.w3.org/2000/svg" xmlns:xlink="http://www.w3.org/1999/xlink" width="18.000000" height="18.000000" fill="none" customFrame="#000000">
	<rect id="logo" width="18.000000" height="18.000000" x="0.000000" y="0.000000" />
	<path id="合并" d="M9.64961 10.3L11.3149 6.02959C11.3998 5.81173 11.6111 5.66812 11.8465 5.66812L12.9797 5.66812C14.8319 5.66812 16.3334 7.17104 16.3334 9.02499C16.3334 10.8637 14.7432 12.3319 12.9061 12.3319L9.10055 12.3319C8.9311 12.3319 8.78014 12.438 8.72403 12.5967L8.25427 13.9247C8.24126 13.9615 8.26877 14 8.30806 14L13.1964 14C15.9158 13.9559 18 11.7574 18 9.02499C18 6.2542 15.8633 4.00719 13.0971 4.00002L13.6623 4.00002L13.0971 4.00002C13.093 4.00001 13.088 4 13.0838 4L10.7628 4L5.04281 4.00002C2.25774 4.00002 0 6.23859 0 9.00001C0 11.7266 2.20117 13.9435 4.93772 13.9989L5.03559 14L5.63733 14L5.93646 14C6.17152 14 6.38247 13.8569 6.4677 13.6395L6.97995 12.3333L5.03893 12.3333C3.18399 12.3313 1.68092 10.8397 1.68092 9C1.68092 7.15906 3.18608 5.66668 5.04279 5.66668L7.45916 5.66668C7.68206 5.61624 7.86892 5.45699 7.94959 5.23759L8.40465 4.00002L10.7628 4C10.4827 4.00197 10.227 4.17325 10.1254 4.43251L7.71143 10.5866C7.69688 10.6237 7.72451 10.6636 7.76464 10.6636L9.11887 10.6615C9.354 10.6615 9.56477 10.5176 9.64961 10.3Z" fill="rgb(255,255,255)" fill-rule="evenodd" />
</svg>
