<svg viewBox="0 0 283 32.5" xmlns="http://www.w3.org/2000/svg" xmlns:xlink="http://www.w3.org/1999/xlink" width="283.000000" height="32.500000" fill="none" customFrame="#000000">
	<defs>
		<radialGradient id="paint_radial_13" cx="0" cy="0" r="1" gradientUnits="userSpaceOnUse" gradientTransform="matrix(-26.1588,-16.8523,24.9794,-38.774,11.3013,5.12936)">
			<stop stop-color="rgb(90,221,248)" offset="0" stop-opacity="1" />
			<stop stop-color="rgb(174,191,255)" offset="0" stop-opacity="1" />
			<stop stop-color="rgb(20,118,255)" offset="0.329153001" stop-opacity="1" />
			<stop stop-color="rgb(131,169,255)" offset="1" stop-opacity="1" />
		</radialGradient>
	</defs>
	<g id="logo">
		<path id="" d="M67.375 17.2539C67.375 19.3555 66.7148 21.0879 65.3945 22.4512C64.0742 23.8145 62.3555 24.4961 60.2383 24.4961C58.1289 24.4961 56.418 23.8125 55.1055 22.4453C53.793 21.0781 53.1367 19.3477 53.1367 17.2539L53.1367 14.1836C53.1367 12.0977 53.791 10.3691 55.0996 8.99805C56.4082 7.62695 58.1133 6.94141 60.2148 6.94141C62.332 6.94141 64.0547 7.62695 65.3828 8.99805C66.7109 10.3691 67.375 12.0977 67.375 14.1836L67.375 17.2539ZM63.9648 14.1602C63.9648 12.832 63.6328 11.7422 62.9688 10.8906C62.3047 10.0391 61.3867 9.61328 60.2148 9.61328C59.0586 9.61328 58.1582 10.0391 57.5137 10.8906C56.8691 11.7422 56.5469 12.832 56.5469 14.1602L56.5469 17.2539C56.5469 18.6055 56.8711 19.707 57.5195 20.5586C58.168 21.4102 59.0742 21.8359 60.2383 21.8359C61.4102 21.8359 62.3242 21.4102 62.9805 20.5586C63.6367 19.707 63.9648 18.6055 63.9648 17.2539L63.9648 14.1602ZM81.2617 18.2617C81.2617 20.1367 80.8281 21.6445 79.9609 22.7852C79.0938 23.9258 77.8828 24.4961 76.3281 24.4961C75.6641 24.4961 75.0742 24.373 74.5586 24.127C74.043 23.8809 73.6016 23.5195 73.2344 23.043L73.2344 29.125L69.8242 29.125L69.8242 11.5703L72.9062 11.5703L73.1055 13.0703C73.4805 12.5156 73.9316 12.0879 74.459 11.7871C74.9863 11.4863 75.6016 11.3359 76.3047 11.3359C77.875 11.3359 79.0938 11.9492 79.9609 13.1758C80.8281 14.4023 81.2617 16.0156 81.2617 18.0156L81.2617 18.2617ZM77.8398 18.0156C77.8398 16.8203 77.6406 15.8516 77.2422 15.1094C76.8438 14.3672 76.2344 13.9961 75.4141 13.9961C74.8984 13.9961 74.459 14.1016 74.0957 14.3125C73.7324 14.5234 73.4453 14.8242 73.2344 15.2148L73.2344 20.7695C73.4453 21.1289 73.7324 21.4023 74.0957 21.5898C74.459 21.7773 74.9062 21.8711 75.4375 21.8711C76.2656 21.8711 76.873 21.5469 77.2598 20.8984C77.6465 20.25 77.8398 19.3711 77.8398 18.2617L77.8398 18.0156ZM88.8672 24.4961C86.9766 24.4961 85.5 23.916 84.4375 22.7559C83.375 21.5957 82.8438 20.1016 82.8438 18.2734L82.8438 17.8047C82.8438 15.9062 83.3594 14.3516 84.3906 13.1406C85.4219 11.9297 86.8398 11.3281 88.6445 11.3359C90.3477 11.3359 91.6543 11.8574 92.5645 12.9004C93.4746 13.9434 93.9297 15.3477 93.9297 17.1133L93.9297 18.8828L86.3711 18.8828L86.3359 18.9531C86.3906 19.8203 86.6543 20.5234 87.127 21.0625C87.5996 21.6016 88.3008 21.8711 89.2305 21.8711C89.9961 21.8711 90.6465 21.793 91.1816 21.6367C91.7168 21.4805 92.2695 21.2422 92.8398 20.9219L93.7656 23.0312C93.2578 23.4453 92.5703 23.793 91.7031 24.0742C90.8359 24.3555 89.8906 24.4961 88.8672 24.4961ZM88.6445 13.9727C87.957 13.9727 87.4277 14.209 87.0566 14.6816C86.6855 15.1543 86.4609 15.7812 86.3828 16.5625L86.4062 16.6211L90.5781 16.6211L90.5781 16.3633C90.5781 15.6211 90.4258 15.0371 90.1211 14.6113C89.8164 14.1855 89.3242 13.9727 88.6445 13.9727ZM99.0508 11.5703L99.2031 13.3867C99.625 12.7383 100.145 12.2344 100.762 11.875C101.379 11.5156 102.07 11.3359 102.836 11.3359C104.117 11.3359 105.117 11.748 105.836 12.5723C106.555 13.3965 106.914 14.6992 106.914 16.4805L106.914 24.25L103.48 24.25L103.48 16.4922C103.48 15.5859 103.322 14.9434 103.006 14.5645C102.689 14.1855 102.215 13.9961 101.582 13.9961C101.074 13.9961 100.627 14.0918 100.24 14.2832C99.8535 14.4746 99.5352 14.7383 99.2852 15.0742L99.2852 24.25L95.8633 24.25L95.8633 11.5703L99.0508 11.5703ZM121.621 9.82422L116.746 9.82422L116.746 24.25L113.324 24.25L113.324 9.82422L108.52 9.82422L108.52 7.1875L121.621 7.1875L121.621 9.82422ZM126.836 24.25L123.414 24.25L123.414 11.5703L126.836 11.5703L126.836 24.25ZM126.836 8.53516L123.414 8.53516L123.414 5.96875L126.836 5.96875L126.836 8.53516ZM132.777 11.5703L132.93 13.3867C133.352 12.7383 133.871 12.2344 134.488 11.875C135.105 11.5156 135.797 11.3359 136.562 11.3359C137.844 11.3359 138.844 11.748 139.562 12.5723C140.281 13.3965 140.641 14.6992 140.641 16.4805L140.641 24.25L137.207 24.25L137.207 16.4922C137.207 15.5859 137.049 14.9434 136.732 14.5645C136.416 14.1855 135.941 13.9961 135.309 13.9961C134.801 13.9961 134.354 14.0918 133.967 14.2832C133.58 14.4746 133.262 14.7383 133.012 15.0742L133.012 24.25L129.59 24.25L129.59 11.5703L132.777 11.5703ZM147.766 18.9297L147.906 19.6328L147.977 19.6328L150.402 11.5703L154.082 11.5703L148.938 26.1484C148.578 27.0547 148.09 27.8184 147.473 28.4395C146.855 29.0605 145.93 29.3711 144.695 29.3711C144.406 29.3711 144.139 29.3477 143.893 29.3008C143.646 29.2539 143.348 29.1875 142.996 29.1016L143.395 26.6055C143.496 26.6211 143.605 26.6367 143.723 26.6523C143.84 26.668 143.945 26.6758 144.039 26.6758C144.602 26.6758 145.035 26.5371 145.34 26.2598C145.645 25.9824 145.879 25.6367 146.043 25.2227L146.441 24.2383L141.941 11.5703L145.621 11.5703L147.766 18.9297ZM165.109 18.0625L165.109 24.25L161.688 24.25L161.688 7.1875L168.215 7.1875C170.176 7.1875 171.719 7.6875 172.844 8.6875C173.969 9.6875 174.531 11.0039 174.531 12.6367C174.531 14.2695 173.969 15.582 172.844 16.5742C171.719 17.5664 170.176 18.0625 168.215 18.0625L165.109 18.0625ZM165.109 15.4258L168.215 15.4258C169.168 15.4258 169.891 15.166 170.383 14.6465C170.875 14.127 171.121 13.4648 171.121 12.6602C171.121 11.8398 170.877 11.1621 170.389 10.627C169.9 10.0918 169.176 9.82422 168.215 9.82422L165.109 9.82422L165.109 15.4258ZM180.32 24.25L176.898 24.25L176.898 5.96875L180.32 5.96875L180.32 24.25ZM190.609 24.25C190.484 23.9609 190.377 23.6562 190.287 23.3359C190.197 23.0156 190.133 22.6875 190.094 22.3516C189.742 22.9688 189.277 23.4805 188.699 23.8867C188.121 24.293 187.434 24.4961 186.637 24.4961C185.309 24.4961 184.285 24.1543 183.566 23.4707C182.848 22.7871 182.488 21.8555 182.488 20.6758C182.488 19.4336 182.967 18.4707 183.924 17.7871C184.881 17.1035 186.277 16.7617 188.113 16.7617L190.035 16.7617L190.035 15.7539C190.035 15.1445 189.875 14.6719 189.555 14.3359C189.234 14 188.758 13.832 188.125 13.832C187.57 13.832 187.143 13.9668 186.842 14.2363C186.541 14.5059 186.391 14.875 186.391 15.3438L183.098 15.3438L183.074 15.2734C183.02 14.2031 183.486 13.2793 184.475 12.502C185.463 11.7246 186.754 11.3359 188.348 11.3359C189.871 11.3359 191.104 11.7188 192.045 12.4844C192.986 13.25 193.457 14.3477 193.457 15.7773L193.457 21.0156C193.457 21.6094 193.502 22.168 193.592 22.6914C193.682 23.2148 193.824 23.7344 194.02 24.25L190.609 24.25ZM187.48 21.9648C188.074 21.9648 188.605 21.8164 189.074 21.5195C189.543 21.2227 189.863 20.8789 190.035 20.4883L190.035 18.6953L188.113 18.6953C187.387 18.6953 186.838 18.875 186.467 19.2344C186.096 19.5938 185.91 20.0352 185.91 20.5586C185.91 20.9883 186.049 21.3301 186.326 21.584C186.604 21.8379 186.988 21.9648 187.48 21.9648ZM200.418 18.9297L200.559 19.6328L200.629 19.6328L203.055 11.5703L206.734 11.5703L201.59 26.1484C201.23 27.0547 200.742 27.8184 200.125 28.4395C199.508 29.0605 198.582 29.3711 197.348 29.3711C197.059 29.3711 196.791 29.3477 196.545 29.3008C196.299 29.2539 196 29.1875 195.648 29.1016L196.047 26.6055C196.148 26.6211 196.258 26.6367 196.375 26.6523C196.492 26.668 196.598 26.6758 196.691 26.6758C197.254 26.6758 197.688 26.5371 197.992 26.2598C198.297 25.9824 198.531 25.6367 198.695 25.2227L199.094 24.2383L194.594 11.5703L198.273 11.5703L200.418 18.9297ZM207.449 18.0156C207.449 16.0156 207.883 14.4023 208.75 13.1758C209.617 11.9492 210.836 11.3359 212.406 11.3359C213.117 11.3359 213.742 11.4961 214.281 11.8164C214.82 12.1367 215.281 12.5938 215.664 13.1875L215.934 11.5703L218.875 11.5703L218.875 24.1914C218.875 25.8398 218.336 27.1152 217.258 28.0176C216.18 28.9199 214.676 29.3711 212.746 29.3711C212.105 29.3711 211.426 29.2832 210.707 29.1074C209.988 28.9316 209.324 28.6914 208.715 28.3867L209.289 25.832C209.812 26.082 210.354 26.2715 210.912 26.4004C211.471 26.5293 212.074 26.5938 212.723 26.5938C213.66 26.5938 214.35 26.3984 214.791 26.0078C215.232 25.6172 215.453 25.0078 215.453 24.1797L215.453 23.0312C215.078 23.5078 214.637 23.8711 214.129 24.1211C213.621 24.3711 213.039 24.4961 212.383 24.4961C210.828 24.4961 209.617 23.9258 208.75 22.7852C207.883 21.6445 207.449 20.1367 207.449 18.2617L207.449 18.0156ZM210.871 18.2617C210.871 19.3711 211.057 20.2441 211.428 20.8809C211.799 21.5176 212.406 21.8359 213.25 21.8359C213.773 21.8359 214.217 21.7402 214.58 21.5488C214.943 21.3574 215.234 21.0781 215.453 20.7109L215.453 15.2148C215.234 14.8242 214.943 14.5234 214.58 14.3125C214.217 14.1016 213.781 13.9961 213.273 13.9961C212.438 13.9961 211.828 14.3672 211.445 15.1094C211.062 15.8516 210.871 16.8203 210.871 18.0156L210.871 18.2617ZM228.168 14.5117L226.914 14.4766C226.406 14.4766 225.988 14.582 225.66 14.793C225.332 15.0039 225.082 15.3008 224.91 15.6836L224.91 24.25L221.5 24.25L221.5 11.5703L224.676 11.5703L224.828 13.4453C225.125 12.7812 225.51 12.2637 225.982 11.8926C226.455 11.5215 227 11.3359 227.617 11.3359C227.789 11.3359 227.947 11.3496 228.092 11.377C228.236 11.4043 228.383 11.4375 228.531 11.4766L228.168 14.5117ZM229.188 17.793C229.188 15.9023 229.715 14.3535 230.77 13.1465C231.824 11.9395 233.285 11.3359 235.152 11.3359C237.027 11.3359 238.496 11.9375 239.559 13.1406C240.621 14.3438 241.152 15.8945 241.152 17.793L241.152 18.0391C241.152 19.9453 240.623 21.498 239.564 22.6973C238.506 23.8965 237.043 24.4961 235.176 24.4961C233.301 24.4961 231.834 23.8965 230.775 22.6973C229.717 21.498 229.188 19.9453 229.188 18.0391L229.188 17.793ZM232.598 18.0391C232.598 19.1953 232.801 20.123 233.207 20.8223C233.613 21.5215 234.27 21.8711 235.176 21.8711C236.059 21.8711 236.705 21.5195 237.115 20.8164C237.525 20.1133 237.73 19.1875 237.73 18.0391L237.73 17.793C237.73 16.668 237.523 15.75 237.109 15.0391C236.695 14.3281 236.043 13.9727 235.152 13.9727C234.27 13.9727 233.623 14.3301 233.213 15.0449C232.803 15.7598 232.598 16.6758 232.598 17.793L232.598 18.0391ZM251.031 22.375C250.641 23.0547 250.145 23.5781 249.543 23.9453C248.941 24.3125 248.242 24.4961 247.445 24.4961C246.109 24.4961 245.064 24.043 244.311 23.1367C243.557 22.2305 243.18 20.8242 243.18 18.918L243.18 11.5703L246.59 11.5703L246.59 18.9414C246.59 20.0508 246.74 20.8105 247.041 21.2207C247.342 21.6309 247.809 21.8359 248.441 21.8359C248.988 21.8359 249.457 21.748 249.848 21.5723C250.238 21.3965 250.559 21.1367 250.809 20.793L250.809 11.5703L254.23 11.5703L254.23 24.25L251.395 24.25L251.031 22.375ZM259.938 11.5703L260.09 13.3867C260.512 12.7383 261.031 12.2344 261.648 11.875C262.266 11.5156 262.957 11.3359 263.723 11.3359C265.004 11.3359 266.004 11.748 266.723 12.5723C267.441 13.3965 267.801 14.6992 267.801 16.4805L267.801 24.25L264.367 24.25L264.367 16.4922C264.367 15.5859 264.209 14.9434 263.893 14.5645C263.576 14.1855 263.102 13.9961 262.469 13.9961C261.961 13.9961 261.514 14.0918 261.127 14.2832C260.74 14.4746 260.422 14.7383 260.172 15.0742L260.172 24.25L256.75 24.25L256.75 11.5703L259.938 11.5703ZM269.828 18.0156C269.828 16.0156 270.26 14.4023 271.123 13.1758C271.986 11.9492 273.203 11.3359 274.773 11.3359C275.406 11.3359 275.977 11.4727 276.484 11.7461C276.992 12.0195 277.438 12.4102 277.82 12.918L277.82 5.96875L281.254 5.96875L281.254 24.25L278.336 24.25L278.043 22.6914C277.645 23.2773 277.172 23.7246 276.625 24.0332C276.078 24.3418 275.453 24.4961 274.75 24.4961C273.195 24.4961 271.986 23.9258 271.123 22.7852C270.26 21.6445 269.828 20.1367 269.828 18.2617L269.828 18.0156ZM273.238 18.2617C273.238 19.3711 273.426 20.2441 273.801 20.8809C274.176 21.5176 274.785 21.8359 275.629 21.8359C276.121 21.8359 276.551 21.7363 276.918 21.5371C277.285 21.3379 277.586 21.0469 277.82 20.6641L277.82 15.2617C277.586 14.8633 277.287 14.5527 276.924 14.3301C276.561 14.1074 276.137 13.9961 275.652 13.9961C274.816 13.9961 274.205 14.3672 273.818 15.1094C273.432 15.8516 273.238 16.8203 273.238 18.0156L273.238 18.2617Z" fill="rgb(230,230,230)" fill-rule="nonzero" />
		<g id="IP">
			<g id="组合 1564">
				<rect id="矩形 761" width="40.000000" height="32.500000" x="0.000000" y="0.000000" rx="16.250000" fill="url(#paint_radial_13)" />
				<rect id="矩形 762" width="27.417465" height="14.666679" x="5.981934" y="9.103516" rx="7.333340" fill="rgb(255,255,255)" />
				<rect id="矩形 840" width="2.990996" height="6.068941" x="25.921875" y="13.655273" rx="1.495498" fill="rgb(20,118,255)" />
				<path id="合并(边框)" d="M12.3256 14.3563C12.3772 14.2478 12.4413 14.1507 12.5179 14.0649L12.5179 14.0649C12.599 13.9741 12.694 13.8961 12.803 13.8307C12.909 13.7672 13.0194 13.7209 13.134 13.6919C13.24 13.665 13.3497 13.6529 13.463 13.6556C13.5756 13.6535 13.6845 13.6659 13.7897 13.6929L13.7897 13.6929C13.904 13.7222 14.014 13.7687 14.1196 13.8324C14.2274 13.8973 14.3215 13.9748 14.4019 14.0647C14.4787 14.1506 14.543 14.2479 14.5948 14.3565L16.3326 18.0091C16.3737 18.0956 16.4041 18.1844 16.4238 18.2756L16.4238 18.2756C16.4379 18.3414 16.4465 18.4084 16.4495 18.4766C16.4529 18.5546 16.449 18.6314 16.4376 18.7071L16.4376 18.7071C16.426 18.7844 16.4067 18.8606 16.3797 18.9356C16.3526 19.0108 16.3188 19.0818 16.2784 19.1488L16.2784 19.1488L16.2784 19.1488C16.239 19.214 16.1932 19.2752 16.1411 19.3326C16.0955 19.3829 16.0463 19.4286 15.9936 19.4698C15.9205 19.527 15.8406 19.5754 15.7539 19.615C15.6796 19.6489 15.6034 19.675 15.5255 19.6931L15.5255 19.6931C15.4478 19.7112 15.3683 19.7214 15.287 19.7237C15.2153 19.7258 15.1446 19.7216 15.0747 19.7114C14.9917 19.6992 14.91 19.6783 14.8296 19.6487C14.749 19.6191 14.673 19.582 14.6015 19.5374L14.6015 19.5374C14.5416 19.5 14.4849 19.4573 14.4315 19.4093C14.3703 19.3545 14.3157 19.2948 14.2675 19.2301L14.2675 19.2301C14.2196 19.1659 14.1782 19.0969 14.1431 19.0231L13.4597 17.587L12.7763 19.0228C12.7408 19.0973 12.6988 19.1669 12.6504 19.2316C12.6025 19.2955 12.5483 19.3547 12.4877 19.409C12.434 19.4571 12.3771 19.5 12.3169 19.5375C12.2457 19.5819 12.1699 19.6188 12.0896 19.6483C12.0092 19.6779 11.9274 19.6987 11.8445 19.7109C11.7746 19.7212 11.7039 19.7253 11.6323 19.7232C11.5515 19.7209 11.4723 19.7108 11.395 19.6929C11.3167 19.6747 11.2402 19.6486 11.1655 19.6145C11.0789 19.5749 10.999 19.5265 10.9258 19.4693L10.9258 19.4693C10.8732 19.4282 10.824 19.3824 10.7783 19.3321C10.7262 19.2748 10.6805 19.2135 10.6411 19.1483C10.6006 19.0814 10.5668 19.0103 10.5397 18.9351C10.5127 18.8601 10.4934 18.7839 10.4818 18.7066C10.4705 18.6309 10.4665 18.5541 10.4699 18.4762C10.4729 18.4085 10.4814 18.3419 10.4954 18.2766L10.4954 18.2766C10.515 18.1849 10.5455 18.0955 10.5869 18.0085L12.3256 14.3563L12.3256 14.3563Z" fill="rgb(20,118,255)" fill-rule="evenodd" />
			</g>
		</g>
	</g>
</svg>
