<svg viewBox="0 0 26.3999 26.3999" xmlns="http://www.w3.org/2000/svg" xmlns:xlink="http://www.w3.org/1999/xlink" width="26.399902" height="26.399902" fill="none" customFrame="#000000">
	<defs>
		<linearGradient id="paint_linear_20" x1="10.2082062" x2="18.4362106" y1="7.83202887" y2="16.4560299" gradientUnits="userSpaceOnUse">
			<stop stop-color="rgb(178,207,255)" offset="0" stop-opacity="1" />
			<stop stop-color="rgb(247,250,255)" offset="1" stop-opacity="1" />
		</linearGradient>
		<linearGradient id="paint_linear_21" x1="20.8560314" x2="14.631609" y1="16.0160313" y2="12.6128044" gradientUnits="userSpaceOnUse">
			<stop stop-color="rgb(178,207,255)" offset="0" stop-opacity="1" />
			<stop stop-color="rgb(247,250,255)" offset="1" stop-opacity="1" />
		</linearGradient>
	</defs>
	<g id="n2">
		<rect id="矩形备份 5" width="26.400000" height="26.400005" x="0.000000" y="0.000000" rx="4.800001" fill="rgb(20,118,255)" />
		<rect id="矩形备份 5" width="25.850000" height="25.850006" x="0.275000" y="0.275000" rx="4.525001" stroke="rgb(210,45,38)" stroke-opacity="0" stroke-width="0.550000012" />
		<g id="组合 19">
			<g style="mix-blend-mode:normal">
				<path id="矢量 327" d="M9.6701 18.8809L9.6701 12.6224L15.8699 20.1574C16.3714 20.7669 17.1193 21.12 17.9086 21.12L18.526 21.12C19.984 21.12 21.166 19.9381 21.166 18.48L21.166 7.53202C21.166 6.28828 20.1577 5.28003 18.914 5.28003C17.6702 5.28003 16.662 6.28828 16.662 7.53202L16.662 12.1307C16.662 12.7544 15.8767 13.0301 15.4868 12.5432L10.4627 6.26977C9.96171 5.64415 9.2036 5.28003 8.40209 5.28003L7.83189 5.28003C6.37386 5.28003 5.19189 6.462 5.19189 7.92003L5.19189 18.8809C5.19189 20.1176 6.19437 21.12 7.431 21.12C8.66762 21.12 9.6701 20.1176 9.6701 18.8809Z" fill="rgb(255,255,255)" fill-rule="evenodd" />
			</g>
			<g style="mix-blend-mode:normal">
				<path id="矢量 328" d="M21.1663 18.48L21.1663 7.53202C21.1663 6.28828 20.158 5.28003 18.9143 5.28003C17.6705 5.28003 16.6623 6.28828 16.6623 7.53202L16.6623 12.1307C16.6623 12.7544 15.877 13.0301 15.4871 12.5432L10.6105 6.45395C10.2986 6.06448 9.67041 6.28503 9.67041 6.784L9.67041 12.6224L15.8702 20.1574C16.3717 20.7669 17.1196 21.12 17.9089 21.12L18.5263 21.12C19.9843 21.12 21.1663 19.9381 21.1663 18.48Z" fill="url(#paint_linear_20)" fill-rule="evenodd" />
			</g>
			<g style="mix-blend-mode:normal">
				<path id="矢量 329" d="M21.1661 18.1039L21.1661 7.53202C21.1661 6.28828 20.1578 5.28003 18.9141 5.28003C17.6704 5.28003 16.6621 6.28828 16.6621 7.53202L16.6621 13.0197C16.6621 13.0954 16.6817 13.1699 16.7189 13.2358L19.6843 18.493C20.0844 19.2024 21.1661 18.9184 21.1661 18.1039Z" fill="url(#paint_linear_21)" fill-rule="evenodd" />
			</g>
		</g>
	</g>
</svg>
