<svg viewBox="0 0 24 24" xmlns="http://www.w3.org/2000/svg" xmlns:xlink="http://www.w3.org/1999/xlink" width="24.000000" height="24.000000" fill="none" customFrame="#000000">
	<defs>
		<linearGradient id="paint_linear_18" x1="4.79980469" x2="16.5642014" y1="12.0000467" y2="11.3067207" gradientUnits="userSpaceOnUse">
			<stop stop-color="rgb(255,255,255)" offset="0" stop-opacity="0.858823538" />
			<stop stop-color="rgb(255,255,255)" offset="0.251694322" stop-opacity="0.800000012" />
			<stop stop-color="rgb(255,255,255)" offset="1" stop-opacity="1" />
		</linearGradient>
		<linearGradient id="paint_linear_19" x1="10.2299051" x2="8.95917416" y1="17.0286064" y2="12.5591049" gradientUnits="userSpaceOnUse">
			<stop stop-color="rgb(0,0,0)" offset="0" stop-opacity="0" />
			<stop stop-color="rgb(0,0,0)" offset="1" stop-opacity="1" />
		</linearGradient>
	</defs>
	<g id="e1">
		<rect id="矩形备份 5" width="24.000000" height="23.999998" x="0.000000" y="0.000000" rx="4.363636" fill="rgb(126,183,252)" />
		<rect id="矩形备份 5" width="23.500000" height="23.499998" x="0.250000" y="0.250000" rx="4.113636" stroke="rgb(210,45,38)" stroke-opacity="0" stroke-width="0.49999997" />
		<g style="mix-blend-mode:normal">
			<path id="路径" d="M17.3998 4.80005L17.3998 8.40005L11.9998 8.40005C10.0116 8.40005 8.3998 10.0118 8.3998 12C8.3998 13.9883 10.0116 15.6 11.9998 15.6L17.3998 15.6L17.3998 19.2001L11.9998 19.2001C8.02335 19.2001 4.7998 15.9765 4.7998 12C4.7998 8.0236 8.02335 4.80005 11.9998 4.80005L17.3998 4.80005Z" fill="url(#paint_linear_18)" fill-rule="evenodd" />
		</g>
		<path id="矩形备份 6" d="M15.5998 10.2L15.5998 13.8L12.5998 13.8C11.6057 13.8 10.7998 12.9941 10.7998 12C10.7998 11.0058 11.6057 10.2 12.5998 10.2L15.5998 10.2Z" fill="rgb(255,255,255)" fill-rule="evenodd" />
		<g style="mix-blend-mode:soft-light">
			<path id="路径 42" d="M11.9999 8.40234C5.1466 8.40234 4.24895 14.5482 6.87366 17.04C9.49838 19.5318 11.7057 19.1799 13.2268 19.2C14.7479 19.2201 14.2415 15.6019 11.9999 15.6019C9.75823 15.6019 8.38516 13.5996 8.38516 12C8.38516 10.4004 9.67364 8.40234 11.9999 8.40234Z" fill="url(#paint_linear_19)" fill-rule="evenodd" />
		</g>
	</g>
</svg>
