<svg viewBox="0 0 32 32" xmlns="http://www.w3.org/2000/svg" xmlns:xlink="http://www.w3.org/1999/xlink" width="32.000000" height="32.000000" fill="none" customFrame="#000000">
	<defs>
		<clipPath id="clipPath_2">
			<rect width="32.000000" height="32.000000" x="0.000000" y="0.000000" rx="16.000000" fill="rgb(255,255,255)" />
		</clipPath>
		<clipPath id="clipPath_3">
			<rect width="14.000000" height="14.000000" x="9.000000" y="9.000000" fill="rgb(255,255,255)" />
		</clipPath>
	</defs>
	<g customFrame="url(#clipPath_2)" style="mix-blend-mode:normal">
		<rect id="大屏" width="32.000000" height="32.000000" x="0.000000" y="0.000000" rx="16.000000" fill="rgb(245,245,245)" fill-opacity="0" />
		<g id="ic_public_tv" clip-path="url(#clipPath_3)" customFrame="url(#clipPath_3)">
			<rect id="ic_public_tv" width="14.000000" height="14.000000" x="9.000000" y="9.000000" />
			<g id="ic_public_tv-电视/base/ic_public_tv">
				<path id="path1" d="M9.43909 15.9947C9.43909 14.9694 9.43551 13.9442 9.43909 12.919C9.43703 12.4228 9.49801 11.9285 9.62056 11.4477C9.88917 10.4302 10.552 9.82634 11.5685 9.59208C12.0782 9.48195 12.5988 9.43036 13.1202 9.43829C15.0862 9.43829 17.0525 9.43829 19.0189 9.43829C19.5155 9.43521 20.0106 9.49201 20.4937 9.60746C21.5409 9.86376 22.1694 10.5271 22.4088 11.5708C22.5164 12.064 22.5678 12.5679 22.5621 13.0727C22.5621 15.06 22.5621 17.0474 22.5621 19.035C22.5647 19.5268 22.5081 20.0172 22.3934 20.4954C22.1371 21.5432 21.4707 22.1686 20.427 22.408C19.9173 22.5177 19.3967 22.5693 18.8753 22.5618C16.9175 22.5618 14.9598 22.5618 13.0023 22.5618C12.5019 22.5659 12.0028 22.5099 11.5157 22.3952C10.4638 22.1389 9.83227 21.4725 9.59339 20.4237C9.47139 19.8905 9.43909 19.3559 9.43909 18.8166C9.43909 17.8761 9.43909 16.9355 9.43909 15.9947Z" fill="rgb(255,255,255)" fill-opacity="0" fill-rule="nonzero" />
				<path id="path1" d="M9.43909 12.919C9.43703 12.4228 9.49801 11.9285 9.62056 11.4477C9.88917 10.4302 10.552 9.82634 11.5685 9.59208C12.0782 9.48195 12.5988 9.43036 13.1202 9.43829C15.0862 9.43829 17.0525 9.43829 19.0189 9.43829C19.5155 9.43521 20.0106 9.49201 20.4937 9.60746C21.5409 9.86376 22.1694 10.5271 22.4088 11.5708C22.5164 12.064 22.5678 12.5679 22.5621 13.0727C22.5621 15.06 22.5621 17.0474 22.5621 19.035C22.5647 19.5268 22.5081 20.0172 22.3934 20.4954C22.1371 21.5432 21.4707 22.1686 20.427 22.408C19.9173 22.5177 19.3967 22.5693 18.8753 22.5618C16.9175 22.5618 14.9598 22.5618 13.0023 22.5618C12.5019 22.5659 12.0028 22.5099 11.5157 22.3952C10.4638 22.1389 9.83227 21.4725 9.59339 20.4237C9.47139 19.8905 9.43909 19.3559 9.43909 18.8166C9.43909 17.8761 9.43909 16.9355 9.43909 15.9947C9.43909 14.9694 9.43551 13.9442 9.43909 12.919Z" fill-rule="nonzero" stroke="rgb(255,255,255)" stroke-opacity="0" stroke-width="0.875" />
				<path id="path2" d="M9.43909 12.919C9.43703 12.4228 9.49801 11.9285 9.62056 11.4477C9.88917 10.4302 10.552 9.82634 11.5685 9.59208C12.0782 9.48195 12.5988 9.43036 13.1202 9.43829C15.0862 9.43829 17.0525 9.43829 19.0189 9.43829C19.5155 9.43521 20.0106 9.49201 20.4937 9.60746C21.5409 9.86376 22.1694 10.5271 22.4088 11.5708C22.5164 12.064 22.5678 12.5679 22.5621 13.0727C22.5621 15.06 22.5621 17.0474 22.5621 19.035C22.5647 19.5268 22.5081 20.0172 22.3934 20.4954C22.1371 21.5432 21.4707 22.1686 20.427 22.408C19.9173 22.5177 19.3967 22.5693 18.8753 22.5618C16.9175 22.5618 14.9598 22.5618 13.0023 22.5618C12.5019 22.5659 12.0028 22.5099 11.5157 22.3952C10.4638 22.1389 9.83227 21.4725 9.59339 20.4237C9.47139 19.8905 9.43909 19.3559 9.43909 18.8166C9.43909 17.8761 9.43909 16.9355 9.43909 15.9947C9.43909 14.9694 9.43551 13.9442 9.43909 12.919Z" opacity="0.200000003" fill-rule="nonzero" stroke="rgb(255,255,255)" stroke-opacity="0" stroke-width="0.875" />
				<circle id="path3" cx="16" cy="16" r="7" fill="rgb(255,255,255)" fill-opacity="0" />
				<path id="path4" d="M11.1875 21.25L20.8125 21.25M16 21.25L16 19.5" stroke="rgb(179,179,179)" stroke-linecap="round" stroke-linejoin="round" stroke-width="0.875" />
				<path id="path5" d="M16.1752 21.25L20.8127 21.25C20.9093 21.25 20.9877 21.3283 20.9877 21.4249C20.9877 21.5216 20.9093 21.6 20.8127 21.6L11.1877 21.6C11.091 21.6 11.0127 21.5216 11.0127 21.4249C11.0127 21.3283 11.091 21.25 11.1877 21.25L15.8252 21.2502L15.8252 19.5C15.8252 19.4033 15.9035 19.325 16.0002 19.325C16.0968 19.325 16.1752 19.4033 16.1752 19.5L16.1752 21.25Z" fill="rgb(255,255,255)" fill-opacity="0" fill-rule="nonzero" />
				<path id="path5" d="M20.8127 21.25C20.9093 21.25 20.9877 21.3283 20.9877 21.4249C20.9877 21.5216 20.9093 21.6 20.8127 21.6L11.1877 21.6C11.091 21.6 11.0127 21.5216 11.0127 21.4249C11.0127 21.3283 11.091 21.25 11.1877 21.25L15.8252 21.2502L15.8252 19.5C15.8252 19.4033 15.9035 19.325 16.0002 19.325C16.0968 19.325 16.1752 19.4033 16.1752 19.5L16.1752 21.25L20.8127 21.25Z" fill-rule="nonzero" stroke="rgb(255,255,255)" stroke-opacity="0" stroke-linejoin="round" stroke-width="0.875" />
				<path id="path6" d="M15.9999 19.5001L11.2749 19.5001C10.3084 19.5001 9.5249 18.7166 9.5249 17.7501L9.5249 11.9167C9.5249 10.9502 10.3084 10.1667 11.2749 10.1667L20.7249 10.1667C21.6914 10.1667 22.4749 10.9502 22.4749 11.9167L22.4749 17.7501C22.4749 18.7166 21.6914 19.5001 20.7249 19.5001L17.7499 19.5001" fill-rule="evenodd" stroke="rgb(179,179,179)" stroke-linecap="round" stroke-linejoin="round" stroke-width="0.875" />
				<path id="path7" d="M9.5249 17.7501L9.5249 11.9167C9.5249 10.9502 10.3084 10.1667 11.2749 10.1667L20.7249 10.1667C21.6914 10.1667 22.4749 10.9502 22.4749 11.9167L22.4749 17.7501C22.4749 18.7166 21.6914 19.5001 20.7249 19.5001L11.2749 19.5001C10.3084 19.5001 9.5249 18.7166 9.5249 17.7501Z" fill="rgb(255,255,255)" fill-opacity="0" fill-rule="evenodd" />
				<path id="path7" d="M9.5249 11.9167C9.5249 10.9502 10.3084 10.1667 11.2749 10.1667L20.7249 10.1667C21.6914 10.1667 22.4749 10.9502 22.4749 11.9167L22.4749 17.7501C22.4749 18.7166 21.6914 19.5001 20.7249 19.5001L11.2749 19.5001C10.3084 19.5001 9.5249 18.7166 9.5249 17.7501L9.5249 11.9167Z" fill-rule="evenodd" stroke="rgb(255,255,255)" stroke-opacity="0" stroke-linejoin="round" stroke-width="0.875" />
			</g>
		</g>
	</g>
</svg>
