<svg viewBox="0 0 32 32" xmlns="http://www.w3.org/2000/svg" xmlns:xlink="http://www.w3.org/1999/xlink" width="32.000000" height="32.000000" fill="none" customFrame="#000000">
	<defs>
		<clipPath id="clipPath_0">
			<rect width="32.000000" height="32.000000" x="0.000000" y="0.000000" rx="16.000000" fill="rgb(255,255,255)" />
		</clipPath>
		<clipPath id="clipPath_1">
			<rect width="14.000000" height="14.000000" x="9.000000" y="9.000000" fill="rgb(255,255,255)" />
		</clipPath>
	</defs>
	<g customFrame="url(#clipPath_0)" style="mix-blend-mode:normal">
		<rect id="布局" width="32.000000" height="32.000000" x="0.000000" y="0.000000" rx="16.000000" />
		<g id="ic_ict_table_view" clip-path="url(#clipPath_1)" customFrame="url(#clipPath_1)">
			<rect id="ic_ict_table_view" width="14.000000" height="14.000000" x="9.000000" y="9.000000" />
			<path id="path1" d="M8.99983 15.9941C8.99983 14.9003 8.99691 13.8066 8.99983 12.7128C8.99691 12.182 9.064 11.6541 9.19233 11.1437C9.48108 10.0587 10.1869 9.41409 11.2719 9.16325C11.8144 9.04659 12.3715 8.99117 12.9257 8.99992C15.0227 8.99992 17.1198 8.99992 19.2198 8.99992C19.7477 8.997 20.2757 9.05534 20.7919 9.18075C21.909 9.452 22.5798 10.1608 22.8336 11.2749C22.9502 11.7999 23.0027 12.3366 22.9969 12.8762C22.9969 14.9966 22.9969 17.117 22.9969 19.2345C22.9998 19.7595 22.9415 20.2845 22.819 20.7949C22.5448 21.912 21.8332 22.577 20.7219 22.8337C20.1765 22.9503 19.6223 23.0058 19.0652 22.997C16.9769 22.997 14.8886 22.997 12.8002 22.997C12.2665 23.0028 11.7357 22.9416 11.2165 22.8191C10.0936 22.5478 9.41983 21.8362 9.16608 20.7162C9.03483 20.1474 8.99983 19.5787 8.99983 19.0041C8.99983 18.0008 8.99983 16.9974 8.99983 15.9941Z" fill="rgb(255,255,255)" fill-opacity="0" fill-rule="evenodd" />
			<circle id="path2" cx="16" cy="16" r="7" fill="rgb(255,255,255)" fill-opacity="0" />
			<path id="矢量 322" d="M21.9793 11.7708L21.9793 20.2291C21.9793 21.1945 21.1947 21.9791 20.2293 21.9791L11.771 21.9791C10.8027 21.9791 10.021 21.1945 10.021 20.2291L10.021 11.7708C10.021 10.8024 10.8027 10.0208 11.771 10.0208L20.2293 10.0208C21.1947 10.0208 21.9793 10.8024 21.9793 11.7708Z" fill-rule="nonzero" stroke="rgb(230,230,230)" stroke-width="0.875" />
			<path id="path7" d="M13.7134 13.6667L13.7134 21.9763" stroke="rgb(230,230,230)" stroke-linecap="square" stroke-linejoin="round" stroke-width="0.875" />
			<path id="path7" d="M18.2837 13.6667L18.2837 21.9763" stroke="rgb(230,230,230)" stroke-linecap="square" stroke-linejoin="round" stroke-width="0.875" />
			<path id="path7" d="M10.021 13.6667L21.9793 13.6667" stroke="rgb(230,230,230)" stroke-linecap="square" stroke-linejoin="round" stroke-width="0.875" />
			<path id="减去顶层" d="M13.2789 14.1042L9.5835 14.1042L9.5835 20.2292C9.5835 21.4367 10.5606 22.4167 11.771 22.4167L13.2789 22.4167L13.2789 14.1042Z" fill="rgb(255,255,255)" fill-opacity="0" fill-rule="evenodd" />
			<path id="减去顶层" d="M22.4166 14.1042L18.7212 14.1042L18.7212 22.4167L20.2291 22.4167C21.4366 22.4167 22.4166 21.4367 22.4166 20.2292L22.4166 14.1042Z" fill="rgb(255,255,255)" fill-opacity="0" fill-rule="evenodd" />
			<path id="减去顶层" d="M17.8463 14.1042L14.1509 14.1042L14.1509 22.4167L17.8463 22.4167L17.8463 14.1042Z" fill="rgb(255,255,255)" fill-opacity="0" fill-rule="evenodd" />
			<path id="减去顶层" />
			<path id="减去顶层" d="M20.2293 9.58325L11.771 9.58325C10.5606 9.58325 9.5835 10.5603 9.5835 11.7708L9.5835 13.2291L22.4168 13.2291L22.4168 11.7708C22.4168 10.5603 21.4368 9.58325 20.2293 9.58325Z" fill="rgb(255,255,255)" fill-opacity="0" fill-rule="evenodd" />
		</g>
	</g>
</svg>
