<svg viewBox="0 0 20 20" xmlns="http://www.w3.org/2000/svg" xmlns:xlink="http://www.w3.org/1999/xlink" width="20.000000" height="20.000000" fill="none" customFrame="#000000">
	<g id="菜单">
		<rect id="矩形" width="20.000000" height="20.000000" x="0.000000" y="0.000000" fill="rgb(255,255,255)" fill-opacity="0" />
		<rect id="矩形" width="19.000000" height="19.000000" x="0.500000" y="0.500000" stroke="rgb(151,151,151)" stroke-opacity="0" stroke-width="1" />
		<path id="形状结合" d="M16.6667 2.49927C17.1269 2.49927 17.5 2.87236 17.5 3.3326C17.5 3.79284 17.1269 4.16593 16.6667 4.16593L3.33333 4.16593C2.8731 4.16593 2.5 3.79284 2.5 3.3326C2.5 2.87236 2.8731 2.49927 3.33333 2.49927L16.6667 2.49927ZM16.6667 9.16602C17.1269 9.16602 17.5 9.53911 17.5 9.99935C17.5 10.4596 17.1269 10.8327 16.6667 10.8327L3.33333 10.8327C2.8731 10.8327 2.5 10.4596 2.5 9.99935C2.5 9.53911 2.8731 9.16602 3.33333 9.16602L16.6667 9.16602ZM17.5 16.6661C17.5 16.2059 17.1269 15.8328 16.6667 15.8328L3.33333 15.8328C2.8731 15.8328 2.5 16.2059 2.5 16.6661C2.5 17.1263 2.8731 17.4994 3.33333 17.4994L16.6667 17.4994C17.1269 17.4994 17.5 17.1263 17.5 16.6661Z" fill="rgb(87,93,108)" fill-rule="evenodd" />
		<path id="形状结合" d="M16.6667 2.49927C17.1269 2.49927 17.5 2.87236 17.5 3.3326C17.5 3.79284 17.1269 4.16593 16.6667 4.16593L3.33333 4.16593C2.8731 4.16593 2.5 3.79284 2.5 3.3326C2.5 2.87236 2.8731 2.49927 3.33333 2.49927L16.6667 2.49927ZM16.6667 9.16602C17.1269 9.16602 17.5 9.53911 17.5 9.99935C17.5 10.4596 17.1269 10.8327 16.6667 10.8327L3.33333 10.8327C2.8731 10.8327 2.5 10.4596 2.5 9.99935C2.5 9.53911 2.8731 9.16602 3.33333 9.16602L16.6667 9.16602ZM16.6667 15.8328C17.1269 15.8328 17.5 16.2059 17.5 16.6661C17.5 17.1263 17.1269 17.4994 16.6667 17.4994L3.33333 17.4994C2.8731 17.4994 2.5 17.1263 2.5 16.6661C2.5 16.2059 2.8731 15.8328 3.33333 15.8328L16.6667 15.8328Z" fill="rgb(151,151,151)" fill-opacity="0" fill-rule="evenodd" />
	</g>
</svg>
